<?xml version="1.0" encoding="UTF-8"?>
<svg xmlns="http://www.w3.org/2000/svg" width="56" height="56" viewBox="0 0 56 56" fill="none">
  <mask id="path-1-inside-1_13845_10614" fill="white">
    <path d="M0 28C0 12.536 12.536 0 28 0C43.464 0 56 12.536 56 28C56 43.464 43.464 56 28 56C12.536 56 0 43.464 0 28Z"></path>
  </mask>
  <path d="M0 28C0 12.536 12.536 0 28 0C43.464 0 56 12.536 56 28C56 43.464 43.464 56 28 56C12.536 56 0 43.464 0 28Z" fill="#1A1F2B"></path>
  <path d="M0 28M56 28M56 28M0 28M28 0M56 28M28 56M0 28M28 56V55C13.0883 55 1 42.9117 1 28H0H-1C-1 44.0163 11.9837 57 28 57V56ZM56 28H55C55 42.9117 42.9117 55 28 55V56V57C44.0163 57 57 44.0163 57 28H56ZM28 0V1C42.9117 1 55 13.0883 55 28H56H57C57 11.9837 44.0163 -1 28 -1V0ZM28 0V-1C11.9837 -1 -1 11.9837 -1 28H0H1C1 13.0883 13.0883 1 28 1V0Z" fill="#F1FAF8" mask="url(#path-1-inside-1_13845_10614)"></path>
  <path d="M28.0003 37.1666C28.0003 37.1666 35.3337 33.4999 35.3337 27.9999V21.5833L28.0003 18.8333L20.667 21.5833V27.9999C20.667 33.4999 28.0003 37.1666 28.0003 37.1666Z" stroke="white" stroke-opacity="0.6" stroke-width="1.46667" stroke-linecap="round" stroke-linejoin="round"></path>
</svg>
